<svg height="512pt" viewBox="0 -46 512 512" width="512pt" xmlns="http://www.w3.org/2000/svg"><g fill-rule="evenodd"><path d="m183 98.332031v187.152344c4.507812 10.71875 7 22.492187 7 34.851563 0 12.351562-2.496094 24.117187-7 34.835937v3.160156h247.691406v-47.539062c0-13.074219 10.695313-23.769531 23.769532-23.769531h47.539062v-188.691407zm0 0" fill="#f1dbc8"/><path d="m482 38.332031h-280c-11 0-20 9-20 20v40h320v-40c0-11-9-20-20-20zm0 0" fill="#c22c65"/><path d="m129.664062 235.011719c-2.84375.992187-5.625 2.117187-8.332031 3.378906-30.714843 14.328125-52 45.484375-52 81.609375 0 39.308594 25.203125 72.726562 60.328125 84.988281 22.996094-8.023437 41.742188-25.109375 51.945313-46.988281 5.386719-11.546875 8.394531-24.421875 8.394531-38 0-39.308594-25.207031-72.726562-60.335938-84.988281zm0 0" fill="#bdd377"/><path d="m454.460938 286.691406c-13.070313 0-23.769532 10.695313-23.769532 23.769532v47.539062l71.308594-71.308594zm0 0" fill="#c78f70"/><path d="m502 286.691406-71.308594 71.308594h51.308594c11 0 20-9 20-20zm0 0" fill="#e9bc82"/></g><path d="m235.636719 203h50v103.636719h-50zm0 0" fill="#fff"/><path d="m182 153h50v50h-50zm0 0" fill="#fff"/><path d="m382 153h-150v50h53.636719v103.636719h96.363281zm0 0" fill="#e9bc82"/><path d="m134.226562 284.429688-49.925781 49.925781-18.527343-18.527344c-3.90625-3.902344-10.238282-3.902344-14.144532 0-3.902344 3.90625-3.902344 10.238281 0 14.144531l25.601563 25.597656c1.953125 1.953126 4.511719 2.929688 7.070312 2.929688 2.558594 0 5.121094-.976562 7.070313-2.929688l56.996094-56.996093c3.90625-3.902344 3.90625-10.234375 0-14.140625-3.902344-3.90625-10.234376-3.90625-14.140626-.003906zm0 0"/><path d="m132.003906 143h-.238281c-5.523437 0-10 4.480469-10 10 0 5.523438 4.476563 10 10 10h.238281c5.519532 0 10-4.476562 10-10 0-5.519531-4.480468-10-10-10zm0 0"/><path d="m432 163h.234375c5.523437 0 10-4.476562 10-10 0-5.519531-4.476563-10-10-10h-.234375c-5.523438 0-10 4.480469-10 10 0 5.523438 4.476562 10 10 10zm0 0"/><path d="m512 338v-280c0-16.542969-13.457031-30-30-30h-10v-18c0-5.523438-4.476562-10-10-10s-10 4.476562-10 10v18h-20v-18c0-5.523438-4.476562-10-10-10s-10 4.476562-10 10v18h-20v-18c0-5.523438-4.476562-10-10-10s-10 4.476562-10 10v18h-20v-18c0-5.523438-4.476562-10-10-10s-10 4.476562-10 10v18h-20v-18c0-5.523438-4.476562-10-10-10s-10 4.476562-10 10v18h-20v-18c0-5.523438-4.476562-10-10-10s-10 4.476562-10 10v18h-20v-18c0-5.523438-4.476562-10-10-10s-10 4.476562-10 10v18h-20v-18c0-5.523438-4.476562-10-10-10s-10 4.476562-10 10v18h-20v-18c0-5.523438-4.476562-10-10-10s-10 4.476562-10 10v18h-20v-18c0-5.523438-4.476562-10-10-10s-10 4.476562-10 10v18h-10c-16.542969 0-30 13.457031-30 30v174.296875c-30.964844 17.015625-52 49.945313-52 87.703125 0 55.140625 44.859375 100 100 100 37.757812 0 70.691406-21.035156 87.703125-52h294.296875c16.542969 0 30-13.460938 30-30v.003906c0-.003906 0 0 0-.003906zm-430-290h10v4.933594c0 5.523437 4.476562 10 10 10s10-4.476563 10-10v-4.933594h20v4.933594c0 5.523437 4.476562 10 10 10s10-4.476563 10-10v-4.933594h20v4.933594c0 5.523437 4.476562 10 10 10s10-4.476563 10-10v-4.933594h20v4.933594c0 5.523437 4.476562 10 10 10s10-4.476563 10-10v-4.933594h20v4.933594c0 5.523437 4.476562 10 10 10s10-4.476563 10-10v-4.933594h20v4.933594c0 5.523437 4.476562 10 10 10s10-4.476563 10-10v-4.933594h20v4.933594c0 5.523437 4.476562 10 10 10s10-4.476563 10-10v-4.933594h20v4.933594c0 5.523437 4.476562 10 10 10s10-4.476563 10-10v-4.933594h20v4.933594c0 5.523437 4.476562 10 10 10s10-4.476563 10-10v-4.933594h20v4.933594c0 5.523437 4.476562 10 10 10s10-4.476563 10-10v-4.933594h10c5.515625 0 10 4.484375 10 10v30h-420v-30c0-5.515625 4.484375-10 10-10zm18 352c-44.113281 0-80-35.886719-80-80s35.886719-80 80-80 80 35.886719 80 80-35.886719 80-80 80zm0-180c-9.714844 0-19.109375 1.398438-28 3.996094v-60.996094h31.035156c5.523438 0 10-4.480469 10-10 0-5.523438-4.476562-10-10-10h-31.035156v-35h420v35h-31.035156c-5.523438 0-10 4.476562-10 10 0 5.519531 4.476562 10 10 10h31.035156v113.691406h-37.539062c-18.617188 0-33.769532 15.148438-33.769532 33.769532v37.539062h-224.6875c2.597656-8.890625 3.996094-18.285156 3.996094-28 0-55.140625-44.859375-100-100-100zm377.855469 76.691406-37.164063 37.164063v-23.394531c0-7.59375 6.179688-13.769532 13.769532-13.769532zm4.144531 51.308594h-27.164062l37.164062-37.164062v27.164062c0 5.511719-4.484375 10-10 10zm0 0"/><path d="m392 153c0-5.523438-4.476562-10-10-10h-200m0 0c-5.523438 0-10 4.476562-10 10v50c0 5.519531 4.476562 10 10 10h40v90c0 5.519531 4.476562 10 10 10h150c5.523438 0 10-4.480469 10-10v-150m-20 90h-30v-30h30zm-50 0h-30v-30h30zm-50 0h-30v-30h30zm-30 20h30v30h-30zm50 0h30v30h-30zm80 30h-30v-30h30zm0-100h-30v-30h30zm-50 0h-30v-30h30zm-50 0h-30v-30h30zm-80-30h30v30h-30zm0 0"/></svg>