<svg height="512pt" viewBox="0 -76 512 512" width="512pt" xmlns="http://www.w3.org/2000/svg"><path d="m230.453125 10.003906h-54.453125v339.996094h326v-339.996094zm0 0" fill="#e23225"/><path d="m467.996094 254.488281v-148.976562c-25.683594 0-46.507813-20.824219-46.507813-46.511719h-245.640625c0 25.6875-20.824218 46.511719-46.511718 46.511719v148.976562c25.6875 0 46.511718 20.824219 46.511718 46.511719h245.636719c.003906-25.6875 20.828125-46.511719 46.511719-46.511719zm0 0" fill="#efeeee"/><path d="m132.386719 20h-.152344c-5.523437 0-10-4.476562-10-10s4.476563-10 10-10h.152344c5.523437 0 10 4.476562 10 10s-4.476563 10-10 10zm0 0"/><path d="m502 360h-492c-5.523438 0-10-4.476562-10-10v-340c0-5.523438 4.476562-10 10-10h82.183594c5.519531 0 10 4.476562 10 10s-4.480469 10-10 10h-72.183594v320h472v-320h-319.554688c-5.519531 0-10-4.476562-10-10s4.480469-10 10-10h329.554688c5.523438 0 10 4.476562 10 10v340c0 5.523438-4.476562 10-10 10zm0 0"/><path d="m421.488281 311h-136.53125c-5.523437 0-10-4.476562-10-10s4.476563-10 10-10h127.414063c4.15625-23.160156 22.46875-41.472656 45.625-45.625v-130.75c-23.15625-4.152344-41.46875-22.464844-45.625-45.625h-312.742188c-4.15625 23.160156-22.46875 41.472656-45.625 45.625v130.75c23.15625 4.152344 41.46875 22.464844 45.625 45.625h112.363282c5.523437 0 10 4.476562 10 10s-4.476563 10-10 10h-121.480469c-5.523438 0-10-4.476562-10-10 0-20.132812-16.378907-36.511719-36.507813-36.511719-5.523437 0-10-4.476562-10-10v-148.976562c0-5.523438 4.476563-10 10-10 20.128906 0 36.507813-16.378907 36.507813-36.511719 0-5.523438 4.476562-10 10-10h330.976562c5.523438 0 10 4.476562 10 10 0 20.132812 16.378907 36.511719 36.507813 36.511719 5.523437 0 10 4.476562 10 10v148.976562c0 5.523438-4.476563 10-10 10-20.128906 0-36.507813 16.378907-36.507813 36.511719 0 5.523438-4.476562 10-10 10zm0 0"/><path d="m249.199219 311c-2.628907 0-5.210938-1.070312-7.070313-2.929688-1.859375-1.859374-2.929687-4.441406-2.929687-7.070312s1.070312-5.210938 2.929687-7.070312c1.859375-1.859376 4.441406-2.929688 7.070313-2.929688 2.628906 0 5.210937 1.070312 7.070312 2.929688 1.859375 1.859374 2.929688 4.441406 2.929688 7.070312s-1.070313 5.210938-2.929688 7.070312c-1.859375 1.859376-4.441406 2.929688-7.070312 2.929688zm0 0"/><path d="m263.699219 136.710938c-4.347657-3.40625-10.632813-2.644532-14.039063 1.703124l-20.207031 25.789063-20.210937-25.789063c-3.40625-4.347656-9.691407-5.109374-14.039063-1.703124-4.34375 3.40625-5.109375 9.691406-1.699219 14.039062l23.246094 29.664062-23.246094 29.667969c-3.410156 4.347657-2.644531 10.632813 1.699219 14.039063 1.832031 1.433594 4.003906 2.128906 6.164063 2.128906 2.96875 0 5.90625-1.316406 7.875-3.832031l20.210937-25.789063 20.207031 25.789063c1.976563 2.515625 4.910156 3.832031 7.878906 3.832031 2.160157 0 4.332032-.695312 6.160157-2.128906 4.347656-3.40625 5.113281-9.691406 1.703125-14.039063l-23.246094-29.667969 23.246094-29.664062c3.410156-4.347656 2.644531-10.632812-1.703125-14.039062zm0 0"/><path d="m167.792969 154.582031c5.523437 0 10-4.476562 10-10 0-5.523437-4.476563-10-10-10h-25.558594c-5.519531 0-10 4.476563-10 10v71.667969c0 5.523438 4.480469 10 10 10h25.558594c5.523437 0 10-4.476562 10-10s-4.476563-10-10-10h-15.558594v-15.835938h15.558594c5.523437 0 10-4.476562 10-10 0-5.519531-4.476563-10-10-10h-15.558594v-15.832031zm0 0"/><path d="m289.648438 133.75c-5.523438 0-10 4.476562-10 10v71.667969c0 5.523437 4.476562 10 10 10 5.523437 0 10-4.476563 10-10v-71.667969c0-5.523438-4.476563-10-10-10zm0 0"/><path d="m369.765625 133.75h-55c-5.523437 0-10 4.476562-10 10s4.476563 10 10 10h16.664063v61.667969c0 5.523437 4.476562 10 10 10 5.523437 0 10-4.476563 10-10v-61.667969h18.335937c5.519531 0 10-4.476562 10-10s-4.480469-10-10-10zm0 0"/></svg>