<?xml version="1.0" encoding="iso-8859-1"?>
<!-- Generator: Adobe Illustrator 19.0.0, SVG Export Plug-In . SVG Version: 6.00 Build 0)  -->
<svg version="1.1" id="Capa_1" xmlns="http://www.w3.org/2000/svg" xmlns:xlink="http://www.w3.org/1999/xlink" x="0px" y="0px"
	 viewBox="0 0 424 424" style="enable-background:new 0 0 424 424;" xml:space="preserve">
<g>
	<path style="fill:#FFA757;" d="M143.28,189.44l1.36-9.44c6.24-42.4,53.12-45.76,67.36-45.76c14.24,0,61.12,3.28,67.36,45.76
		l1.36,9.2L143.28,189.44z"/>
	<circle style="fill:#FFA757;" cx="212" cy="80.56" r="30"/>
	<circle style="fill:#FFA757;" cx="76" cy="264.56" r="30"/>
	<circle style="fill:#FFA757;" cx="348" cy="264.56" r="30"/>
</g>
<g>
	<path style="fill:#FFFFFF;" d="M7.28,373.44L8.64,364c6.24-42.4,53.12-45.76,67.36-45.76s61.12,3.28,67.36,45.76l1.36,9.2
		L7.28,373.44z"/>
	<path style="fill:#FFFFFF;" d="M279.28,373.44l1.36-9.44c6.24-42.4,53.12-45.76,67.36-45.76s61.12,3.28,67.36,45.76l1.36,9.2
		L279.28,373.44z"/>
</g>
<g>
	<path style="fill:#3F342B;" d="M144,197.44h136c4.418,0,8-3.582,8-8c0-38.8-29.12-62.88-76-62.88s-76,24-76,62.88
		C136,193.858,139.582,197.44,144,197.44z M212,142.56c13.12,0,54.16,2.96,59.44,38.88H152.56
		C157.84,145.52,198.88,142.56,212,142.56z"/>
	<path style="fill:#3F342B;" d="M212,118.56c20.987,0,38-17.013,38-38s-17.013-38-38-38s-38,17.013-38,38
		C174.044,101.529,191.031,118.516,212,118.56z M212,58.56c12.15,0,22,9.85,22,22s-9.85,22-22,22s-22-9.85-22-22
		S199.85,58.56,212,58.56z"/>
	<path style="fill:#3F342B;" d="M76,310.56c-46.88,0-76,24-76,62.88c0,4.418,3.582,8,8,8h136c4.418,0,8-3.582,8-8
		C152,334.64,122.88,310.56,76,310.56z M16.56,365.44c5.28-35.92,46.24-38.88,59.44-38.88s54.16,2.96,59.44,38.88H16.56z"/>
	<path style="fill:#3F342B;" d="M76,302.56c20.987,0,38-17.013,38-38s-17.013-38-38-38s-38,17.013-38,38l0,0
		C38.044,285.529,55.031,302.516,76,302.56z M76,242.56c12.15,0,22,9.85,22,22s-9.85,22-22,22s-22-9.85-22-22
		S63.85,242.56,76,242.56z"/>
	<path style="fill:#3F342B;" d="M348,310.56c-46.88,0-76,24-76,62.88c0,4.418,3.582,8,8,8h136c4.418,0,8-3.582,8-8
		C424,334.64,394.88,310.56,348,310.56z M288.56,365.44c5.28-35.92,46.24-38.88,59.44-38.88s54.16,2.96,59.44,38.88H288.56z"/>
	<path style="fill:#3F342B;" d="M348,302.56c20.987,0,38-17.013,38-38s-17.013-38-38-38s-38,17.013-38,38l0,0
		C310.044,285.529,327.031,302.516,348,302.56z M348,242.56c12.15,0,22,9.85,22,22s-9.85,22-22,22s-22-9.85-22-22
		S335.85,242.56,348,242.56z"/>
	<path style="fill:#3F342B;" d="M220,263.2V216c0-4.418-3.582-8-8-8s-8,3.582-8,8v47.2l-33.36,33.36
		c-3.159,3.115-3.195,8.201-0.08,11.36c3.115,3.159,8.201,3.195,11.36,0.08L212,277.84L242.08,308
		c3.356,2.874,8.406,2.483,11.28-0.873c2.565-2.995,2.565-7.412,0-10.407L220,263.2z"/>
</g>
<g>
</g>
<g>
</g>
<g>
</g>
<g>
</g>
<g>
</g>
<g>
</g>
<g>
</g>
<g>
</g>
<g>
</g>
<g>
</g>
<g>
</g>
<g>
</g>
<g>
</g>
<g>
</g>
<g>
</g>
</svg>
